<svg width="20" height="20" viewBox="0 0 20 20" fill="none" xmlns="http://www.w3.org/2000/svg">
<path fill-rule="evenodd" clip-rule="evenodd" d="M15.1925 13.433C16.4394 11.8253 17.0271 9.80302 16.836 7.77745C16.6448 5.75187 15.6891 3.87521 14.1634 2.52924C12.6377 1.18327 10.6565 0.469102 8.62289 0.53203C6.58929 0.594958 4.65604 1.43025 3.21645 2.86798C1.77561 4.30671 0.937583 6.2407 0.873151 8.27585C0.808719 10.311 1.52273 12.2941 2.86968 13.8211C4.21663 15.3481 6.09515 16.304 8.12243 16.4941C10.1497 16.6841 12.1732 16.094 13.7805 14.844L13.8235 14.889L18.0655 19.132C18.1584 19.2249 18.2687 19.2986 18.3901 19.3489C18.5114 19.3992 18.6416 19.425 18.773 19.425C18.9043 19.425 19.0345 19.3992 19.1558 19.3489C19.2772 19.2986 19.3875 19.2249 19.4805 19.132C19.5734 19.0391 19.6471 18.9288 19.6973 18.8074C19.7476 18.686 19.7735 18.5559 19.7735 18.4245C19.7735 18.2931 19.7476 18.163 19.6973 18.0416C19.6471 17.9202 19.5734 17.8099 19.4805 17.717L15.2375 13.475C15.2228 13.4606 15.2078 13.4466 15.1925 13.433ZM13.1165 4.28298C13.6811 4.83846 14.1301 5.50023 14.4377 6.23012C14.7452 6.96001 14.9052 7.74357 14.9085 8.5356C14.9117 9.32764 14.7581 10.1125 14.4564 10.8448C14.1548 11.5772 13.7112 12.2426 13.1511 12.8027C12.5911 13.3627 11.9257 13.8064 11.1933 14.108C10.4609 14.4096 9.67611 14.5632 8.88407 14.56C8.09204 14.5568 7.30848 14.3967 6.57859 14.0892C5.8487 13.7816 5.18693 13.3326 4.63145 12.768C3.52137 11.6397 2.90211 10.1184 2.90855 8.5356C2.915 6.95278 3.54663 5.43663 4.66586 4.31739C5.7851 3.19816 7.30125 2.56653 8.88407 2.56008C10.4669 2.55364 11.9881 3.1729 13.1165 4.28298Z" fill="#0F111D"/>
</svg>
